<svg xmlns="http://www.w3.org/2000/svg" viewBox="0 0 500 500">

<defs>
<style>.cls-1{fill:currentColor;}</style>
</defs>

<circle class="cls-1" cx="250" cy="250" r="200"/>

<path d="M342.62,336.55c-56.31,1.34-115.61-1.15-171.83-2.22l-10.74-.27-2.71-.07A16.34,16.34,0,0,1,143,325.05a17.47,17.47,0,0,1-1.69-9.28c.12-3.29.28-12.67.4-16.11.88-33.53,1.53-74.1,1.9-107.39.05-1.5,0-6.54.09-8.06V182c0-.41,0-.82.09-1.23a13.74,13.74,0,0,1,13.54-12l43,.18c41.67,0,87.45-.51,128.87-1.47l10.74-.25c2.58-.09,5.65-.15,8.12.89a15.43,15.43,0,0,1,10,13.87c0,.4,0,1.75.06,2.19,1,39.54,2.41,89.36,3.12,128.87,0,.82.1,3.49.09,4.37.33,10.19-8.51,19.18-18.7,19.08Zm0-23.1a4.07,4.07,0,0,0-3.94,3.72c.33-18.7,1.18-54.81,1.66-73.87.31-12.44,1.28-48.47,1.59-60.41v-.5a.53.53,0,0,0,.68.39c-46.11-1.22-96-1.73-142.28-1.78l-43,.18a1.15,1.15,0,0,0-1.12,1.07c.31,40.84,1.29,87.17,2.28,128.15.05,1,.12,6.15.17,7.21a1.45,1.45,0,0,0-1.32-1.61l2.66-.06c48.9-1.18,101.29-2.52,150.35-3,7,0,25,.35,32.22.52Z"/>

<path d="M146.42,314.18c15-14.7,30.56-28.8,46-43L208,257.05a3.86,3.86,0,0,1,5.45,5.46c-8.37,9.21-20,22.05-28.33,31-9.49,10.29-19,20.59-28.79,30.56-6.79,6.39-16.31-3.08-9.9-9.9Z"/>

<path d="M297,255.34,355.16,307A10,10,0,1,1,341,321.14L289.36,263c-4.38-5.16,2.49-12,7.64-7.65Z"/>

<path d="M351.83,189.37l-73.9,69.73-12.32,11.63-6.16,5.81a16.56,16.56,0,0,1-5.39,3.8c-7,2.77-14.76-.38-19.47-5.29-1.14-1.19-3.58-3.79-4.75-5-21.08-22.26-59.93-63.58-81.35-86.22a2.14,2.14,0,0,1,3-3l49.27,46.49c10.93,10.24,31.23,29.52,41.94,39.56,1.79,1.61,4.57,3,6.54,2.08.22-.21.57-.57,1.26-1.31L268,249.13l69.74-73.9a10,10,0,1,1,14.14,14.14Z"/></svg>